# xmcd
#
# Track frame offsets: 
#        150
#        18241
#        32949
#        46995
#        66212
#        84065
#        101037
#        124257
#        137766
#        163170
#        173996
#        190119
#        210934
#        225221
#        239092
#        260087
#        278145
#        297926
#        315525
#
# Disc length: 4380 seconds
#
# Revision: 0
# Processed by: cddbd v1.5.1PL2 Copyright (c) Steve Scherf et al.
# Submitted via: ExactAudioCopy v0.95b2
#
DISCID=0c111a13
DTITLE=Γιάννης Πάριος - Τα Ντουέτα Του Έρωτα
DYEAR=2006
DGENRE=Folk
TTITLE0=Κόκκινο Γαρύφαλλο (Χάρις Αλεξίου)
TTITLE1=Το Τραγούδι Του Χάρη ΙΙ (Χάρης Βαρθακούρης)
TTITLE2=Να Μ' Αγαπάς (Μαρινέλλα)
TTITLE3=Κι Είχα Τόσα Να Σου Πω (Αντώνης Ρέμος)
TTITLE4=Παιχνίδι Για Δύο (Δήμητρα Γαλάνη)
TTITLE5=Όλα Για Τον Έρωτα (Ελένη Δήμου)
TTITLE6=Αθήνα Σαλονίκη (Πασχάλης Τερζής)
TTITLE7=Το Αδιέξοδο (Δέσποινα Βανδή)
TTITLE8=Μαρτύριο (’ννα Βίσση)
TTITLE9=Μπέμπα (Διονύσης Σαββόπουλος)
TTITLE10=Ποτέ Ποτέ Ποτέ (Ελένη Δήμου)
TTITLE11=Και Να Που Γύρισες (Μαρινέλλα)
TTITLE12=Λεηλάτησε Με (Χάρις Αλεξίου)
TTITLE13=Κούρσα Θανάτου (Μαρινέλλα)
TTITLE14=Δε Σε Ξεπέρασα (Νατάσα Θεοδωρίδου)
TTITLE15=Σε Συγχωρώ (Δέσποινα Βανδή)
TTITLE16=Το Σ' Αγαπώ Μη Μου Το Πεις (’ννα Φωτίου)
TTITLE17=Κόκκινο Φιλί (Πέγκυ Ζήνα)
TTITLE18=Το Τραγούδι Του Χάρη (Πιο Καλή Η Μοναξιά) (Χάρης Βαρθακούρης)
EXTD=
EXTT0=
EXTT1=
EXTT2=
EXTT3=
EXTT4=
EXTT5=
EXTT6=
EXTT7=
EXTT8=
EXTT9=
EXTT10=
EXTT11=
EXTT12=
EXTT13=
EXTT14=
EXTT15=
EXTT16=
EXTT17=
EXTT18=
PLAYORDER=
